# AST/ASF file generated using VICON BodyLanguage
# -----------------------------------------------
:version 1.10
:name VICON
:units
  mass 1.0
  length 0.45
  angle deg
:documentation
   .ast/.asf automatically generated from VICON data using
   VICON BodyBuilder and BodyLanguage model FoxedUp or BRILLIANT.MOD
:root
   order TX TY TZ RX RY RZ
   axis XYZ
   position 0 0 0  
   orientation 0 0 0 
:bonedata
  begin
     id 1 
     name lhipjoint
     direction 0.612567 -0.751349 0.245431 
     length 2.42285 
     axis 0 0 0  XYZ
  end
  begin
     id 2 
     name lfemur
     direction 0.34202 -0.939693 0  
     length 7.11304  
     axis 0 0 20  XYZ
    dof rx ry rz
    limits (-160.0 20.0)
           (-70.0 70.0)
           (-60.0 70.0)
  end
  begin
     id 3 
     name ltibia
     direction 0.34202 -0.939693 0   
     length 7.84529   
     axis 0 0 20   XYZ
    dof rx
    limits (-10.0 170.0)
  end
  begin
     id 4 
     name lfoot
     direction 0.0779239 -0.214094 0.9737   
     length 1.97176   
     axis -90 7.62852e-016 20   XYZ
    dof rx rz
    limits (-45.0 90.0)
           (-70.0 20.0)
  end
  begin
     id 5 
     name ltoes
     direction 1.53565e-011 -4.21709e-011 1   
     length 0.993197   
     axis -90 7.62852e-016 20   XYZ
    dof rx
    limits (-90.0 20.0)
  end
  begin
     id 6 
     name rhipjoint
     direction -0.665722 -0.709315 0.231701   
     length 2.56642  
     axis 0 0 0  XYZ 
  end
  begin
     id 7 
     name rfemur
     direction -0.34202 -0.939693 0   
     length 7.32108   
     axis 0 0 -20   XYZ
    dof rx ry rz
    limits (-160.0 20.0)
           (-70.0 70.0)
           (-70.0 60.0)
  end
  begin
     id 8 
     name rtibia
     direction -0.34202 -0.939693 0   
     length 7.81254   
     axis 0 0 -20   XYZ
    dof rx
    limits (-10.0 170.0)
 end
 begin
     id 9 
     name rfoot
     direction -0.0832806 -0.228812 0.969902   
     length 2.08278  
     axis -90 -7.62852e-016 -20   XYZ
    dof rx rz
    limits (-45.0 90.0)
           (-20.0 70.0)
  end
  begin
     id 10 
     name rtoes
     direction -1.53589e-011 -4.22086e-011 1   
     length 1.04609   
     axis -90 -7.62852e-016 -20   XYZ
    dof rx
    limits (-90.0 20.0)
  end
  begin
     id 11 
     name lowerback
     direction -0.00506013 0.988403 -0.151766   
     length 2.01978   
     axis 0 0 0   XYZ
    dof rx ry rz
    limits (-20.0 45.0)
           (-30.0 30.0)
           (-30.0 30.0)
  end
  begin
     id 12 
     name upperback
     direction -0.00836389 0.99968 0.0238859   
     length 2.01276   
     axis 0 0 0   XYZ
    dof rx ry rz
    limits (-20.0 45.0)
           (-30.0 30.0)
           (-30.0 30.0)
  end
  begin
     id 13 
     name thorax
     direction -0.00684136 0.995386 0.0957043   
     length 2.07303   
     axis 0 0 0   XYZ
    dof rx ry rz
    limits (-20.0 45.0)
           (-30.0 30.0)
           (-30.0 30.0)
  end
  begin
     id 14 
     name lowerneck
     direction -0.0161045 0.999661 0.0204485   
     length 1.91243   
     axis 0 0 0   XYZ
    dof rx ry rz
    limits (-20.0 45.0)
           (-30.0 30.0)
           (-30.0 30.0)
  end
  begin
     id 15 
     name upperneck
     direction 0.0553583 0.990946 -0.122319   
     length 1.91574   
     axis 0 0 0   XYZ
    dof rx ry rz
    limits (-20.0 45.0)
           (-30.0 30.0)
           (-30.0 30.0)
  end
  begin
     id 16
     name head
     direction 0.0180273 0.998839 -0.0446756  
     length 1.92693  
     axis 0 0 0   XYZ
    dof rx ry rz
    limits (-20.0 45.0)
           (-30.0 30.0)
           (-30.0 30.0)
  end
  begin
     id 17 
     name lclavicle
     direction 0.945646 0.319323 -0.0615358  
     length 4.0076  
     axis 0 0 0   XYZ
    dof ry rz
    limits (-20.0 10.0)
           (0.0 20.0)
  end
  begin
     id 18 
     name lhumerus
     direction 1 -4.48967e-011 -2.79996e-027   
     length 5.64147   
     axis 180 -30 -90   XYZ
    dof rx ry rz
    limits (-60.0 90.0)
           (-90.0 90.0)
           (-90.0 90.0)
  end
  begin
     id 19
     name lradius
     direction 1 -4.48976e-011 -9.5122e-027   
     length 2.86444   
     axis 180 -30 -90   XYZ
    dof rx
    limits (-10.0 170.0)
  end
  begin
     id 20
     name lwrist
     direction 1 -4.48983e-011 -1.24047e-026   
     length 1.43222   
     axis 9.05591e-015 90 90   XYZ
    dof ry
    limits (-180.0 0.0)
 end
  begin
     id 21 
     name lhand
     direction 1 -4.4892e-011 -2.48094e-026   
     length 0.722123   
     axis 1.58305e-014 90 90   XYZ
    dof rx rz
    limits (-90.0 90.0)
           (-45.0 45.0)
  end
  begin
     id 22 
     name lfingers
     direction 1 -4.48895e-011 -4.96187e-026   
     length 0.582194   
     axis 3.1661e-014 90 90   XYZ
    dof rx
    limits (0.0 90.0)
  end
  begin
     id 23
     name lthumb
     direction 0.707107 -6.34961e-011 0.707107   
     length 0.835918   
     axis -90 45 2.85299e-015   XYZ
    dof rx rz
    limits (-45.0 45.0)
           (-45.0 45.0)
  end
  begin
     id 24 
     name rclavicle
     direction -0.932635 0.324218 -0.15835   
     length 3.65819  
     axis 0 0 0   XYZ 
    dof ry rz
    limits (-10.0 20.0)
           (-20.0 0.0)
  end
  begin
     id 25 
     name rhumerus
     direction -1 -4.48965e-011 -4.02296e-027  
     length 5.44729   
     axis 180 30 90   XYZ
    dof rx ry rz
    limits (-90.0 60.0)
           (-90.0 90.0)
           (-90.0 90.0)
  end
  begin
     id 26 
     name rradius
     direction -1 -4.48957e-011 -8.81087e-027   
     length 3.08821   
     axis 180 30 90   XYZ
    dof rx
    limits (-10.0 170.0)
  end
  begin
     id 27 
     name rwrist
     direction -1 -4.49015e-011 -1.24047e-026   
     length 1.5441   
     axis 9.05591e-015 -90 -90   XYZ
    dof ry
    limits (-180.0 0.0)
  end
  begin
     id 28
     name rhand
     direction -1 -4.4891e-011 -2.48094e-026   
     length 0.821049   
     axis 1.58305e-014 -90 -90   XYZ
    dof rx rz
    limits (-90.0 90.0)
           (-45.0 45.0)
  end
  begin
     id 29
     name rfingers
     direction -1 -4.48985e-011 -4.96187e-026   
     length 0.661951   
     axis 3.1661e-014 -90 -90   XYZ
    dof rx
    limits (0.0 90.0)
  end
  begin
     id 30
     name rthumb
     direction -0.707107 -6.34906e-011 0.707107   
     length 0.950433   
     axis -90 -45 -2.85299e-015   XYZ
    dof rx rz
    limits (-45.0 45.0)
           (-45.0 45.0)
  end
:hierarchy
  begin
    root lhipjoint rhipjoint lowerback
    lhipjoint lfemur
    lfemur ltibia
    ltibia lfoot
    lfoot ltoes
    rhipjoint rfemur
    rfemur rtibia
    rtibia rfoot
    rfoot rtoes
    lowerback upperback
    upperback thorax
    thorax lowerneck lclavicle rclavicle
    lowerneck upperneck
    upperneck head
    lclavicle lhumerus
    lhumerus lradius
    lradius lwrist
    lwrist lhand lthumb
    lhand lfingers
    rclavicle rhumerus
    rhumerus rradius
    rradius rwrist
    rwrist rhand rthumb
    rhand rfingers
  end

#!OML:ASF F:\VICON\USERDATA\INSTALL\rory3\rory3.ASF
:FULLY-SPECIFIED
:DEGREES
1226
root 3.16115 17.7858 0.410167 -25.5308 88.054 -25.3489
lowerback 0.434293 1.15874 3.14267
upperback -1.19595 1.57646 -0.85167
thorax -1.36211 0.749994 -2.65978
lowerneck -4.70547 -6.4419 -5.32673
upperneck 14.6868 -9.09871 7.38146
head 5.78657 -4.15493 2.58363
rclavicle -2.01704e-014 1.39149e-015
rhumerus 14.3616 3.49288 -71.5876
rradius 36.5594
rwrist 10.8203
rhand 0.962963 -4.95859
rfingers 7.12502
rthumb 26.5124 -33.1235
lclavicle -2.01704e-014 1.39149e-015
lhumerus -33.1548 -9.75864 85.6857
lradius 29.5788
lwrist 28.0546
lhand -10.0304 11.3912
lfingers 7.12502
lthumb 15.9544 40.7541
rfemur -0.00607915 1.02017 19.7053
rtibia 14.471
rfoot -15.082 -0.390976
rtoes -5.66186
lfemur 0 0 0
ltibia 0
lfoot 0 0
ltoes 0
1227
root 3.16046 17.7866 0.410135 -23.3649 88.0726 -23.1887
lowerback 0.437833 1.13514 3.0656
upperback -1.18995 1.54406 -0.853121
thorax -1.36202 0.734709 -2.6176
lowerneck -4.71476 -6.42867 -5.29692
upperneck 14.6667 -9.06868 7.28154
head 5.77392 -4.14642 2.54966
rclavicle -2.3469e-014 -7.95139e-016
rhumerus 14.1587 3.5697 -71.5761
rradius 36.5956
rwrist 10.767
rhand 0.889949 -4.94219
rfingers 7.12502
rthumb 26.4425 -33.1177
lclavicle -2.3469e-014 -7.95139e-016
lhumerus -33.2225 -9.73078 85.7178
lradius 29.5544
lwrist 27.9758
lhand -10.0758 11.4091
lfingers 7.12502
lthumb 15.9106 40.7755
rfemur -0.0187198 0.905299 19.6103
rtibia 14.458
rfoot -15.03 -0.335654
rtoes -6.1064
lfemur 0 0 0
ltibia 0
lfoot 0 0
ltoes 0
1228
root 3.15825 17.7871 0.410576 -22.7566 88.0215 -22.5806
lowerback 0.458877 1.12243 3.06829
upperback -1.18732 1.52786 -0.839156
thorax -1.37253 0.726471 -2.605
lowerneck -4.6957 -6.40597 -5.2968
upperneck 14.643 -9.03193 7.24354
head 5.75903 -4.13243 2.54139
rclavicle 6.65307e-015 -9.93923e-016
rhumerus 13.9622 3.61424 -71.5771
rradius 36.709
rwrist 10.8359
rhand 0.950355 -4.89143
rfingers 7.12502
rthumb 26.5003 -33.0582
lclavicle 6.65307e-015 -9.93923e-016
lhumerus -33.2813 -9.64508 85.7103
lradius 29.5201
lwrist 27.8425
lhand -9.98719 11.2862
lfingers 7.12502
lthumb 15.996 40.6458
rfemur -0.0261974 0.935191 19.6169
rtibia 14.4355
rfoot -15.0048 -0.363618
rtoes -6.36214
lfemur 0 0 0
ltibia 0
lfoot 0 0
ltoes 0
1229
root 3.15517 17.7872 0.411673 -24.9302 87.9159 -24.7821
lowerback 0.475809 1.10152 3.18749
upperback -1.20338 1.50279 -0.789437
thorax -1.39869 0.712196 -2.62109
lowerneck -4.70029 -6.36928 -5.30118
upperneck 14.6547 -8.97387 7.18619
head 5.7572 -4.10831 2.52845
rclavicle 2.79541e-015 3.77691e-015
rhumerus 13.7993 3.74045 -71.586
rradius 36.8725
rwrist 10.791
rhand 0.997796 -5.01527
rfingers 7.12502
rthumb 26.5457 -33.1752
lclavicle 2.79541e-015 3.77691e-015
lhumerus -33.2915 -9.61277 85.7176
lradius 29.4352
lwrist 27.7563
lhand -9.91479 11.2379
lfingers 7.12502
lthumb 16.0657 40.5919
rfemur -0.0652297 0.977781 19.7498
rtibia 14.4067
rfoot -14.9801 -0.381296
rtoes -6.42564
lfemur 0 0 0
ltibia 0
lfoot 0 0
ltoes 0
1230
root 3.15355 17.7867 0.411029 -25.0071 87.8263 -24.8417
lowerback 0.481914 1.10927 3.25564
upperback -1.17849 1.51382 -0.775267
thorax -1.37452 0.717717 -2.6447
lowerneck -4.70704 -6.35436 -5.27441
upperneck 14.6361 -8.95093 7.15548
head 5.74842 -4.09832 2.51622
rclavicle 1.54617e-014 -1.59028e-015
rhumerus 13.7021 3.72311 -71.6156
rradius 36.9489
rwrist 10.8068
rhand 0.963045 -4.85129
rfingers 7.12502
rthumb 26.5125 -33.0162
lclavicle 1.54617e-014 -1.59028e-015
lhumerus -33.1933 -9.64748 85.7149
lradius 29.2727
lwrist 27.712
lhand -9.87371 11.2904
lfingers 7.12502
lthumb 16.1053 40.6412
rfemur -0.0254922 1.04567 19.7944
rtibia 14.3357
rfoot -14.9424 -0.38897
rtoes -7.01927
lfemur 0 0 0
ltibia 0
lfoot 0 0
ltoes 0
1231
root 3.15282 17.7871 0.410505 -23.7189 87.8043 -23.5109
lowerback 0.507303 1.10518 3.23473
upperback -1.16009 1.50849 -0.781445
thorax -1.37056 0.715499 -2.63956
lowerneck -4.66977 -6.35125 -5.25546
upperneck 14.6465 -8.94575 7.12975
head 5.74289 -4.09687 2.50671
rclavicle 5.35476e-015 1.47101e-014
rhumerus 13.6279 3.64877 -71.633
rradius 36.9132
rwrist 11.0518
rhand 0.896428 -4.20564
rfingers 7.12502
rthumb 26.4487 -32.3802
lclavicle 5.35476e-015 1.47101e-014
lhumerus -33.1398 -9.73645 85.7433
lradius 29.1552
lwrist 27.7326
lhand -9.99753 11.335
lfingers 7.12502
lthumb 15.986 40.6954
rfemur 0.0390731 1.06025 19.7505
rtibia 14.2635
rfoot -14.9168 -0.372115
rtoes -7.23791
lfemur 0 0 0
ltibia 0
lfoot 0 0
ltoes 0
1232
root 3.15257 17.7874 0.409305 -24.0396 87.7411 -23.8454
lowerback 0.493639 1.11448 3.31099
upperback -1.16758 1.52153 -0.782585
thorax -1.36782 0.721148 -2.68352
lowerneck -4.66284 -6.36289 -5.24871
upperneck 14.7407 -8.96596 7.13261
head 5.77229 -4.10338 2.50466
rclavicle 6.6655e-015 -4.37326e-015
rhumerus 13.5423 3.5635 -71.6899
rradius 36.9424
rwrist 11.4713
rhand 0.740448 -3.673
rfingers 7.12502
rthumb 26.2994 -31.8699
lclavicle 6.6655e-015 -4.37326e-015
lhumerus -33.1568 -9.87429 85.7821
lradius 29.1458
lwrist 27.7643
lhand -10.0273 11.3961
lfingers 7.12502
lthumb 15.9574 40.7588
rfemur 0.0200717 1.00955 19.7758
rtibia 14.2392
rfoot -14.8375 -0.321307
rtoes -7.41155
lfemur 0 0 0
ltibia 0
lfoot 0 0
ltoes 0
1233
root 3.15108 17.7867 0.40873 -24.4275 87.6974 -24.2762
lowerback 0.45615 1.11727 3.38117
upperback -1.1806 1.52502 -0.791558
thorax -1.35798 0.722141 -2.73153
lowerneck -4.68135 -6.37368 -5.23574
upperneck 14.8335 -8.98395 7.12636
head 5.80482 -4.10876 2.49809
rclavicle -8.80865e-015 3.97569e-016
rhumerus 13.3998 3.67176 -71.682
rradius 37.2187
rwrist 11.6421
rhand 0.719956 -3.73559
rfingers 7.12502
rthumb 26.2798 -31.9354
lclavicle -8.80865e-015 3.97569e-016
lhumerus -33.227 -10.0078 85.8022
lradius 29.2466
lwrist 27.7888
lhand -9.99976 11.5444
lfingers 7.12502
lthumb 15.9839 40.905
rfemur -0.0348118 1.04419 19.8043
rtibia 14.2432
rfoot -14.7779 -0.247148
rtoes -6.63654
lfemur 0 0 0
ltibia 0
lfoot 0 0
ltoes 0
1234
root 3.1477 17.7873 0.407535 -23.3262 87.6969 -23.1931
lowerback 0.472587 1.11425 3.37283
upperback -1.18578 1.52129 -0.813366
thorax -1.37242 0.719911 -2.7497
lowerneck -4.71223 -6.37463 -5.18183
upperneck 14.8943 -8.9813 7.05172
head 5.82316 -4.10745 2.46489
rclavicle -4.48508e-015 -3.77691e-015
rhumerus 13.2393 3.85992 -71.6034
rradius 37.5695
rwrist 11.6837
rhand 0.632531 -3.80246
rfingers 7.12502
rthumb 26.1961 -32.0148
lclavicle -4.48508e-015 -3.77691e-015
lhumerus -33.1767 -10.0072 85.7954
lradius 29.1415
lwrist 27.6601
lhand -10.0011 11.5741
lfingers 7.12502
lthumb 15.9826 40.9348
rfemur -0.0658174 1.04445 19.7508
rtibia 14.2513
rfoot -14.7609 -0.160379
rtoes -6.07352
lfemur 0 0 0
ltibia 0
lfoot 0 0
ltoes 0
1235
root 3.14608 17.7875 0.406314 -21.1015 87.6698 -20.934
lowerback 0.512916 1.11782 3.3219
upperback -1.17868 1.52628 -0.841427
thorax -1.3879 0.722587 -2.75087
lowerneck -4.70884 -6.37288 -5.14429
upperneck 14.9558 -8.9826 7.0383
head 5.8396 -4.10505 2.45436
rclavicle 2.30031e-014 -1.19271e-015
rhumerus 13.0806 4.19081 -71.493
rradius 37.9342
rwrist 11.7271
rhand 0.307432 -3.93043
rfingers 7.12502
rthumb 25.8848 -32.1885
lclavicle 2.30031e-014 -1.19271e-015
lhumerus -33.0673 -9.95624 85.7818
lradius 28.8793
lwrist 27.5934
lhand -10.0928 11.3909
lfingers 7.12502
lthumb 15.8943 40.7586
rfemur -0.0671992 1.06737 19.6602
rtibia 14.2998
rfoot -14.7437 -0.120601
rtoes -6.08131
lfemur 0 0 0
ltibia 0
lfoot 0 0
ltoes 0
1236
root 3.14499 17.7878 0.405107 -19.8704 87.6391 -19.6904
lowerback 0.599565 1.12768 3.34537
upperback -1.22493 1.54291 -0.888506
thorax -1.48107 0.728028 -2.81546
lowerneck -4.67562 -6.3603 -5.08126
upperneck 15.0353 -8.97518 7.04435
head 5.85564 -4.09533 2.44748
rclavicle -1.14736e-014 -2.18663e-015
rhumerus 12.8185 4.51626 -71.417
rradius 38.3081
rwrist 11.8372
rhand -0.166504 -3.84199
rfingers 7.12502
rthumb 25.4309 -32.1656
lclavicle -1.14736e-014 -2.18663e-015
lhumerus -33.0936 -9.99427 85.7441
lradius 28.7808
lwrist 27.5384
lhand -10.0959 11.2068
lfingers 7.12502
lthumb 15.8913 40.5748
rfemur -0.0938044 1.07853 19.6075
rtibia 14.3463
rfoot -14.7198 -0.101197
rtoes -5.97062
lfemur 0 0 0
ltibia 0
lfoot 0 0
ltoes 0
